<svg xmlns="http://www.w3.org/2000/svg" width="132" height="140" viewBox="0 0 132 140"><path fill="#004169" d="M0 0h132v140H0z"/><path d="M29.2 68.8l1.2-.3c.1 0 .2-.1.3-.2.1-.1.1-.2.1-.4V57.2c0-.1 0-.3-.1-.4s-.2-.2-.3-.2l-1.2-.3v-.5H34c1 0 1.8.1 2.4.2.6.2 1.1.4 1.5.7.4.3.6.6.7.9.1.4.2.7.2 1.1s-.1.8-.2 1.2c-.1.4-.3.7-.6 1-.3.3-.6.5-.9.7-.4.2-.7.4-1.2.5.5 0 1 .1 1.4.3.5.2.8.4 1.2.6.3.3.6.6.8 1 .2.4.3.8.3 1.3s-.1 1-.2 1.3c-.1.4-.3.7-.6 1-.3.3-.6.5-.9.7s-.7.3-1.1.5c-.4.1-.8.2-1.2.2-.4 0-.9.1-1.3.1h-5.1v-.3zm4.3-6.7c.6 0 1.2-.1 1.6-.2s.8-.3 1.1-.5c.3-.2.5-.5.6-.8s.2-.7.2-1.1c0-.5-.1-1-.2-1.3-.1-.4-.3-.7-.6-.9s-.6-.4-1-.5-.9-.2-1.4-.2h-1.2V62h.9v.1zm1.1 6.4c1 0 1.8-.2 2.3-.6s.8-1.1.8-2.1c0-.6-.1-1-.2-1.4s-.4-.7-.7-.9-.7-.4-1.1-.5c-.5-.1-1-.2-1.6-.2h-1.5v5.8l2-.1zm17.5-1.9v.8c-.3.2-.6.5-.9.7s-.7.5-1.1.7-.8.4-1.3.5-.9.2-1.4.2c-1 0-1.8-.2-2.6-.5s-1.4-.8-2-1.4-1-1.3-1.3-2.2c-.3-.9-.4-1.8-.4-2.9 0-1 .2-2 .5-2.8.3-.9.8-1.6 1.3-2.2.6-.6 1.2-1.1 2-1.4s1.6-.5 2.5-.5c.3 0 .7 0 1 .1.4 0 .8.1 1.1.2.4.1.7.2 1.1.2l.9.3v3.1H51l-.6-1.7c0-.1-.1-.2-.2-.3-.1-.1-.2-.1-.2-.2-.2-.1-.4-.2-.7-.3-.3-.1-.5-.2-.8-.3-.3-.1-.6-.1-.9-.2-.3 0-.6-.1-.8-.1-.6 0-1.1.1-1.6.4-.5.2-.9.6-1.2 1.1s-.6 1.1-.8 1.8c-.2.7-.3 1.6-.3 2.5 0 2 .4 3.5 1.3 4.5s2.1 1.5 3.7 1.5c.5 0 1-.1 1.4-.2s.8-.3 1.1-.4l.9-.6c.2-.2.5-.4.7-.6h.1v.2zm-.2 2.2l1.1-.2c.1 0 .2-.1.3-.1.1-.1.2-.1.3-.2.1-.1.2-.2.3-.2.1-.1.1-.2.2-.2l3.4-4.8c-.3-.1-.6-.2-1-.3-.3-.1-.7-.4-1-.6-.3-.3-.5-.6-.7-1s-.3-.8-.3-1.4c0-.3 0-.5.1-.8s.2-.6.3-.8c.1-.3.3-.5.6-.8.2-.2.5-.5.9-.7s.8-.3 1.3-.5c.5-.1 1.1-.2 1.7-.2h5.1v.5l-1.2.3c-.1 0-.2.1-.3.2-.1.1-.1.2-.1.4v10.7c0 .1 0 .3.1.4s.2.2.3.2l1.2.3v.5h-5.2V69l1.4-.3c.1 0 .2-.1.3-.2.1-.1.1-.2.1-.4v-4.8h-1.9l-3.3 4.9c-.1.2-.3.4-.4.5-.1.2-.2.3-.4.4-.1.1-.3.2-.5.2-.2.1-.4.1-.7.1H52v-.6h-.1zm9-6.3v-5.9h-1.5c-1 0-1.8.3-2.3.8s-.8 1.3-.8 2.3c0 .4.1.7.2 1.1.1.3.3.6.5.9s.5.4.9.6c.4.1.8.2 1.3.2h1.7zM29.2 92.6l1.2-.3c.1 0 .2-.1.3-.2.1-.1.1-.2.1-.4V81c0-.1 0-.3-.1-.4-.1-.1-.2-.2-.3-.2l-1.2-.3v-.5h9.4v3.5h-.5l-.9-2.4c0-.1-.1-.2-.1-.2-.1-.1-.1-.1-.3-.1h-4.2v5.2h2.3c.4 0 .8 0 1.2.1.4 0 .8.1 1.1.2.4.1.7.3 1 .4.3.2.5.4.8.7.2.3.4.6.5.9.1.4.2.8.2 1.2 0 .7-.1 1.3-.4 1.8s-.6.9-1.1 1.2c-.4.3-1 .5-1.5.6-.6.1-1.2.2-1.8.2h-5.6l-.1-.3zm5.3-.3c.5 0 1-.1 1.4-.2.4-.1.7-.3 1-.5s.5-.5.6-.9.2-.8.2-1.3c0-.6-.1-1.1-.2-1.5s-.4-.7-.6-1c-.3-.2-.7-.4-1.1-.5-.5-.1-1-.2-1.6-.2h-1.5v5.9h1.8v.2zm8.5 1h-.8c-.1 0-.3 0-.4-.1-.1 0-.2-.1-.3-.1l.4-1.8h.2c.1 0 .2.1.3.1.1 0 .3.1.4.1s.3.1.4.1h.3c.3 0 .6 0 .9-.1s.5-.2.6-.4l.3-.3c.1-.1.2-.3.2-.4.1-.1.1-.3.2-.4.1-.1.1-.3.2-.3l-.3-.6-4.3-8c-.1-.1-.1-.2-.2-.4-.1-.1-.2-.2-.3-.2l-.9-.2v-.5h4.7v.5l-1.7.3 3.2 6.1.5.9.1.2 3.3-7.2-1.6-.4v-.5h3.7v.5l-.8.2c-.1 0-.2.1-.4.2-.1.1-.2.2-.2.3l-4.3 9.2c-.3.6-.6 1.1-.8 1.5-.3.4-.5.7-.8.9s-.6.4-.9.5c-.2.2-.6.3-.9.3zm7.9-1h.7c.4-.4.7-.9 1.1-1.4.3-.5.6-1.1.9-1.7.3-.6.5-1.2.8-1.8.2-.6.4-1.3.6-2s.3-1.3.4-2 .1-1.3.1-1.9V81c0-.1-.1-.2-.1-.3l-.2-.2c-.1 0-.1 0-.2-.1l-1.3-.3v-.5h10.2v.5l-1.2.3c-.1 0-.2.1-.3.2-.1.1-.1.2-.1.4v11.3h1.8v4.1h-.5l-.9-3.1c0-.1-.1-.2-.1-.2s-.1-.1-.3-.1h-9.4c-.1 0-.2 0-.3.1s-.1.1-.1.2l-.9 3.1h-.5v-4.1h-.2zm9.5 0V80.5h-4c0 1.3-.1 2.6-.4 3.8-.2 1.2-.5 2.3-.8 3.3s-.7 1.9-1.2 2.7c-.4.8-.9 1.5-1.3 2h7.7zm10.6 1c-1 0-1.9-.2-2.6-.5-.8-.3-1.4-.8-1.9-1.4s-.9-1.3-1.2-2.2c-.3-.9-.4-1.8-.4-2.8s.1-1.9.4-2.7.7-1.6 1.2-2.2c.5-.6 1.2-1.1 1.9-1.5.8-.4 1.6-.5 2.6-.5s1.9.2 2.7.6c.8.4 1.4.9 1.9 1.5s.9 1.4 1.1 2.2.4 1.7.4 2.7c0 .6-.1 1.1-.2 1.7-.1.6-.3 1.1-.5 1.6s-.5 1-.8 1.4-.7.8-1.2 1.2c-.5.3-1 .6-1.6.8s-1.1.1-1.8.1zm.2-.7c.7 0 1.3-.2 1.8-.5s.9-.7 1.3-1.3c.3-.5.6-1.2.8-1.9.2-.7.3-1.5.3-2.3 0-1-.1-1.8-.3-2.6-.2-.8-.4-1.5-.8-2.1s-.8-1-1.4-1.3-1.2-.5-2-.5c-.7 0-1.3.2-1.8.5s-.9.8-1.3 1.3c-.3.5-.6 1.2-.7 1.9-.2.7-.2 1.4-.2 2.2 0 .9.1 1.8.3 2.6.2.8.4 1.5.8 2.1s.8 1 1.4 1.4 1 .5 1.8.5zm7 0l1.2-.3c.1 0 .2-.1.3-.2.1-.1.1-.2.1-.4V81c0-.1 0-.3-.1-.4-.1-.1-.2-.2-.3-.2l-1.2-.3v-.5H83c1 0 1.8.1 2.4.2.6.2 1.1.4 1.5.7s.6.6.7.9c.1.4.2.7.2 1.1 0 .4-.1.8-.2 1.2s-.3.7-.6 1c-.3.3-.6.5-.9.7-.4.2-.7.4-1.2.5.5 0 1 .1 1.4.3.5.2.8.4 1.2.6.3.3.6.6.8 1 .2.4.3.8.3 1.3s-.1 1-.2 1.3c-.1.4-.3.7-.6 1-.3.3-.6.5-.9.7s-.7.3-1.1.5c-.4.1-.8.2-1.2.2-.4 0-.9.1-1.3.1h-5.1v-.3zm4.3-6.7c.6 0 1.2-.1 1.6-.2.4-.1.8-.3 1.1-.5.3-.2.5-.5.6-.8s.2-.7.2-1.1c0-.5-.1-1-.2-1.3-.1-.4-.3-.7-.6-.9-.3-.2-.6-.4-1-.5s-.9-.2-1.4-.2h-1.2v5.4l.9.1zm1.1 6.4c1 0 1.8-.2 2.3-.6s.8-1.1.8-2.1c0-.6-.1-1-.2-1.4s-.4-.7-.7-.9c-.3-.2-.7-.4-1.1-.5-.5-.1-1-.2-1.6-.2h-1.5v5.8l2-.1zm5 .3l.8-.2c.1 0 .2-.1.3-.2.1-.1.2-.2.2-.4l3.8-10 1.2-2.2h.4l4.7 12.2c.1.1.1.2.2.4.1.1.2.2.3.2l.8.2v.5h-4.7v-.5l1.7-.3-1.6-4.2H92l-1.5 4.1 1.6.4v.5h-3.7v-.5h.2zm8-5.2L95 83.3l-.5-1.3-2 5.4h4.1zm-61.1 29.8c-1 0-1.9-.2-2.6-.5-.8-.3-1.4-.8-1.9-1.4s-.9-1.3-1.2-2.2c-.3-.9-.4-1.8-.4-2.8s.1-1.9.4-2.7.7-1.6 1.2-2.2c.5-.6 1.2-1.1 1.9-1.5.8-.4 1.6-.5 2.6-.5s1.9.2 2.7.6c.8.4 1.4.9 1.9 1.5s.9 1.4 1.1 2.2.4 1.7.4 2.7c0 .6-.1 1.1-.2 1.7-.1.6-.3 1.1-.5 1.6s-.5 1-.8 1.4-.7.8-1.2 1.2c-.5.3-1 .6-1.6.8s-1.1.1-1.8.1zm.1-.7c.7 0 1.3-.2 1.8-.5s.9-.7 1.3-1.3c.3-.5.6-1.2.8-1.9.2-.7.3-1.5.3-2.3 0-1-.1-1.8-.3-2.6-.2-.8-.4-1.5-.8-2.1s-.8-1-1.4-1.3-1.2-.5-2-.5c-.7 0-1.3.2-1.8.5s-.9.8-1.3 1.3c-.3.5-.6 1.2-.7 1.9-.2.7-.2 1.4-.2 2.2 0 .9.1 1.8.3 2.6.2.8.4 1.5.8 2.1s.8 1 1.4 1.4 1.1.5 1.8.5zm6.7-.4h.7c.4-.4.7-.9 1.1-1.4.3-.5.6-1.1.9-1.7.3-.6.5-1.2.8-1.8.2-.6.4-1.3.6-2s.3-1.3.4-2 .1-1.3.1-1.9v-.5c0-.1-.1-.2-.1-.3l-.2-.2c-.1 0-.1 0-.2-.1l-1.3-.3v-.3h10.2v.5l-1.2.3c-.1 0-.2.1-.3.2-.1.1-.1.2-.1.4v11.3h1.8v4.1H55l-.9-3.1c0-.1-.1-.2-.1-.2s-.1-.1-.3-.1h-9.4c-.1 0-.2 0-.3.1s-.1.1-.1.2l-.9 3.1h-.5v-4.3h-.2zm9.5 0v-11.8h-4c0 1.3-.1 2.6-.4 3.8-.2 1.2-.5 2.3-.8 3.3s-.7 1.9-1.2 2.7c-.4.8-.9 1.5-1.3 2h7.7zm4.4.3l1.2-.3c.1 0 .2-.1.3-.2.1-.1.1-.2.1-.4v-10.7c0-.1 0-.3-.1-.4-.1-.1-.2-.2-.3-.2l-1.2-.3v-.3h9.7v3.1h-.5l-.7-2c0-.1-.1-.2-.1-.2-.1-.1-.1-.1-.3-.1h-4.6v5.3h3c.1 0 .2 0 .3-.1.1-.1.1-.1.1-.2l.5-1.6h.5v4.5h-.5l-.5-1.6c0-.1-.1-.2-.1-.2-.1-.1-.2-.1-.3-.1h-3v5.8h5.5c.1 0 .2 0 .3-.1.1-.1.1-.1.1-.2l.6-2.3h.5v3.4H56.2v-.6zm22.7-2.1v.8c-.3.2-.6.5-.9.7s-.7.5-1.1.7-.8.4-1.3.5-.9.2-1.4.2c-1 0-1.8-.2-2.6-.5s-1.4-.8-2-1.4c-.6-.6-1-1.3-1.3-2.2s-.4-1.8-.4-2.9c0-1 .2-2 .5-2.8.3-.9.8-1.6 1.3-2.2.6-.6 1.2-1.1 2-1.4.8-.3 1.6-.5 2.5-.5.3 0 .7 0 1 .1.4 0 .8.1 1.1.2.4.1.7.2 1.1.2l.9.3v3.1h-.5l-.6-1.7c0-.1-.1-.2-.2-.3s-.2-.1-.2-.2c-.2-.1-.4-.2-.7-.3-.3-.1-.5-.2-.8-.3s-.6-.1-.9-.2c-.3 0-.6-.1-.8-.1-.6 0-1.1.1-1.6.4-.5.2-.9.6-1.2 1.1s-.6 1.1-.8 1.8c-.2.7-.3 1.6-.3 2.5 0 2 .4 3.5 1.3 4.5s2.1 1.5 3.7 1.5c.5 0 1-.1 1.4-.2.4-.1.8-.3 1.1-.4l.9-.6c.2-.2.5-.4.7-.6h.1v.2zm11.9 0v.8c-.3.2-.6.5-.9.7s-.7.5-1.1.7-.8.4-1.3.5-.9.2-1.4.2c-1 0-1.8-.2-2.6-.5s-1.4-.8-2-1.4c-.6-.6-1-1.3-1.3-2.2s-.4-1.8-.4-2.9c0-1 .2-2 .5-2.8.3-.9.8-1.6 1.3-2.2.6-.6 1.2-1.1 2-1.4.8-.3 1.6-.5 2.5-.5.3 0 .7 0 1 .1.4 0 .8.1 1.1.2.4.1.7.2 1.1.2l.9.3v3.1h-.5l-.6-1.7c0-.1-.1-.2-.2-.3s-.2-.1-.2-.2c-.2-.1-.4-.2-.7-.3-.3-.1-.5-.2-.8-.3s-.6-.1-.9-.2c-.3 0-.6-.1-.8-.1-.6 0-1.1.1-1.6.4-.5.2-.9.6-1.2 1.1s-.6 1.1-.8 1.8c-.2.7-.3 1.6-.3 2.5 0 2 .4 3.5 1.3 4.5s2.1 1.5 3.7 1.5c.5 0 1-.1 1.4-.2.4-.1.8-.3 1.1-.4l.9-.6c.2-.2.5-.4.7-.6h.1v.2zm.8 2.1l1.2-.3c.1 0 .2-.1.3-.2.1-.1.1-.2.1-.4v-10.7c0-.1 0-.3-.1-.4-.1-.1-.2-.2-.3-.2l-1.2-.3v-.3h5.1v.5l-1.2.3c-.1 0-.2.1-.3.2-.1.1-.1.2-.1.4v4.6h2.1c.4 0 .8 0 1.2.1.4 0 .8.1 1.1.2.3.1.7.3 1 .4.3.2.5.4.8.7.2.3.4.6.5.9.1.4.2.8.2 1.2 0 .7-.1 1.3-.4 1.8s-.6.9-1.1 1.2c-.4.3-1 .5-1.5.6-.6.1-1.2.2-1.8.2h-5.4v-.5h-.2zm5.1-.3c.5 0 1-.1 1.4-.2.4-.1.7-.3 1-.5s.5-.5.6-.9.2-.8.2-1.3c0-.6-.1-1.1-.2-1.5s-.4-.7-.6-1c-.3-.2-.7-.4-1.1-.5-.5-.1-1-.2-1.6-.2H95v5.9h1.7v.2zm5 .3l1.2-.3c.1 0 .2-.1.3-.2.1-.1.1-.2.1-.4v-10.7c0-.1 0-.3-.1-.4-.1-.1-.2-.2-.3-.2l-1.2-.3v-.3h5.1v.5l-1.2.3c-.1 0-.2.1-.3.2-.1.1-.1.2-.1.4v10.6c0 .1 0 .3.1.4.1.1.2.2.3.2l1.2.3v.5h-5l-.1-.6z" fill="#FFF"/></svg>