<svg xmlns="http://www.w3.org/2000/svg" width="33.6" height="26.9" viewBox="61.1 -7.8 33.6 26.9"><path fill="#B6C04C" d="M93.2-5.7c-.2-.2-.5-.2-.6 0-.2.2-.2.5 0 .6 1.7 1.7 1.7 4.4 0 6.1-.2.2-.2.5 0 .6.1.1.2.1.3.1s.2 0 .3-.1c2-2 2-5.3 0-7.3zm-3 1c-.2-.2-.5-.2-.6 0-.2.2-.2.5 0 .6.6.6.9 1.3.9 2.1s-.3 1.5-.9 2.1c-.2.2-.2.5 0 .6.1.1.2.1.3.1s.2 0 .3-.1C90.9 0 91.3-1 91.3-2s-.4-2-1.1-2.7zm-27-.4c.2-.2.2-.5 0-.6-.2-.2-.5-.2-.6 0-2 2-2 5.3 0 7.3.1.1.2.1.3.1.1 0 .2 0 .3-.1.2-.2.2-.5 0-.6-1.6-1.7-1.6-4.4 0-6.1zm3 .3c-.2-.2-.5-.2-.6 0-.7.7-1.1 1.7-1.1 2.7s.4 2 1.1 2.7c.1.1.2.1.3.1.1 0 .2 0 .3-.1.2-.2.2-.5 0-.6-.6-.6-.9-1.3-.9-2.1s.3-1.5.9-2.1c.2-.2.2-.5 0-.6z"/><path fill="#FFF" d="M83.6-7.8H72.3c-1.1 0-2 .9-2 2v23c0 1.1.9 2 2 2h11.3c1.1 0 2-.9 2-2v-23c-.1-1.1-1-2-2-2zm-4.4 1.4h.4c.2 0 .4.2.4.4s-.2.4-.4.4h-.4c-.2 0-.4-.2-.4-.4s.2-.4.4-.4zm-3.1 0h1.8c.2 0 .4.2.4.4s-.2.4-.4.4h-1.8c-.2 0-.4-.2-.4-.4s.2-.4.4-.4zm1.8 24.2c-1 0-1.8-.8-1.8-1.8s.8-1.8 1.8-1.8 1.8.8 1.8 1.8-.8 1.8-1.8 1.8zm6.7-5H71.2v-17h13.5v17z"/></svg>